# xmcd
#
# Track frame offsets:
#	150
#	15640
#	33267
#	52130
#	66725
#	84352
#	105002
#	128177
#	146982
#	167052
#	183607
#	206982
#	221850
#	241922
#	260802
#	276947
#	303047
#
# Disc length: 4218
#
# Revision: 2
# Processed by: cddbd v1.5.1PL0 Copyright (c) Steve Scherf et al.
# Submitted via: ExactAudioCopy v0.90a11
# Normalized: r0:DSETVAR1,TDELIM( - ),TSWAP
#
DISCID=06107811
DTITLE=Various Artist - Greatest Love VI - Disc 2
DYEAR=1900
DGENRE=
TTITLE0=Chris Rea - I Can Hear Your Heartbeat
TTITLE1=Natalie Cole - Miss You LIke Crazy
TTITLE2=Michael Jackson - One Day In Your Life
TTITLE3=Marvin Gaye - I Heard It Through THe Grapevine
TTITLE4=Bryan Ferry - I Put A Spell On You
TTITLE5=Oleta Adams - Get Here
TTITLE6=Sinead O'Connor - Nothing Compares 2 U
TTITLE7=Chris De Burgh - The Lady In Red
TTITLE8=Zucchero Featuring Paul Young - Senza Una Donna (Without A Woman)
TTITLE9=Righteous Brothers - You've Lost That Lovin' Feeling
TTITLE10=Eurythmics - Angel
TTITLE11=Nilsson - Without You
TTITLE12=Joan Armatrading - Love And Affection
TTITLE13=Cliff Richard - The Best Of Me
TTITLE14=Beverley Craven - Promise Me
TTITLE15=Michael Crawford - The Music Of The Night
TTITLE16=Luciano Pavarotti - Nessun Dorma
EXTD=
EXTT0=
EXTT1=
EXTT2=
EXTT3=
EXTT4=
EXTT5=
EXTT6=
EXTT7=
EXTT8=
EXTT9=
EXTT10=
EXTT11=
EXTT12=
EXTT13=
EXTT14=
EXTT15=
EXTT16=
PLAYORDER=
